<svg width="30" height="30" viewBox="0 0 30 30" fill="currentColor" xmlns="http://www.w3.org/2000/svg">
<g clip-path="url(#clip0_862_136)">
<path d="M16.625 0.700195H11.375C10.5448 0.70022 9.74382 1.00621 9.12506 1.55965C8.50631 2.1131 8.11324 2.87518 8.021 3.7002H5.375C4.47989 3.7002 3.62145 4.05577 2.98851 4.68871C2.35558 5.32165 2 6.18009 2 7.0752V27.3252C2 28.2203 2.35558 29.0787 2.98851 29.7117C3.62145 30.3446 4.47989 30.7002 5.375 30.7002H22.625C23.0682 30.7002 23.5071 30.6129 23.9166 30.4433C24.326 30.2737 24.6981 30.0251 25.0115 29.7117C25.3249 29.3983 25.5735 29.0262 25.7431 28.6168C25.9127 28.2073 26 27.7684 26 27.3252V7.0752C26 6.63198 25.9127 6.19311 25.7431 5.78364C25.5735 5.37416 25.3249 5.00211 25.0115 4.68871C24.6981 4.37531 24.326 4.12671 23.9166 3.9571C23.5071 3.78749 23.0682 3.7002 22.625 3.7002H19.979C19.8868 2.87518 19.4937 2.1131 18.8749 1.55965C18.2562 1.00621 17.4552 0.70022 16.625 0.700195ZM11.375 2.9502H16.625C16.9234 2.9502 17.2095 3.06872 17.4205 3.2797C17.6315 3.49068 17.75 3.77683 17.75 4.0752C17.75 4.37356 17.6315 4.65971 17.4205 4.87069C17.2095 5.08167 16.9234 5.2002 16.625 5.2002H11.375C11.0766 5.2002 10.7905 5.08167 10.5795 4.87069C10.3685 4.65971 10.25 4.37356 10.25 4.0752C10.25 3.77683 10.3685 3.49068 10.5795 3.2797C10.7905 3.06872 11.0766 2.9502 11.375 2.9502ZM14.75 13.0752C14.75 12.7768 14.8685 12.4907 15.0795 12.2797C15.2905 12.0687 15.5766 11.9502 15.875 11.9502H21.125C21.4234 11.9502 21.7095 12.0687 21.9205 12.2797C22.1315 12.4907 22.25 12.7768 22.25 13.0752C22.25 13.3736 22.1315 13.6597 21.9205 13.8707C21.7095 14.0817 21.4234 14.2002 21.125 14.2002H15.875C15.5766 14.2002 15.2905 14.0817 15.0795 13.8707C14.8685 13.6597 14.75 13.3736 14.75 13.0752ZM15.875 20.2002H21.125C21.4234 20.2002 21.7095 20.3187 21.9205 20.5297C22.1315 20.7407 22.25 21.0268 22.25 21.3252C22.25 21.6236 22.1315 21.9097 21.9205 22.1207C21.7095 22.3317 21.4234 22.4502 21.125 22.4502H15.875C15.5766 22.4502 15.2905 22.3317 15.0795 22.1207C14.8685 21.9097 14.75 21.6236 14.75 21.3252C14.75 21.0268 14.8685 20.7407 15.0795 20.5297C15.2905 20.3187 15.5766 20.2002 15.875 20.2002ZM12.17 12.3702L9.17 15.3702C8.95906 15.5809 8.67313 15.6992 8.375 15.6992C8.07687 15.6992 7.79094 15.5809 7.58 15.3702L6.08 13.8702C5.96947 13.7672 5.88082 13.643 5.81933 13.505C5.75784 13.367 5.72478 13.218 5.72211 13.067C5.71945 12.9159 5.74723 12.7659 5.80382 12.6258C5.8604 12.4857 5.94461 12.3585 6.05144 12.2516C6.15827 12.1448 6.28552 12.0606 6.4256 12.004C6.56569 11.9474 6.71573 11.9196 6.86678 11.9223C7.01784 11.925 7.16681 11.958 7.30481 12.0195C7.44281 12.081 7.56701 12.1697 7.67 12.2802L8.375 12.9852L10.58 10.7802C10.683 10.6697 10.8072 10.581 10.9452 10.5195C11.0832 10.458 11.2322 10.425 11.3832 10.4223C11.5343 10.4196 11.6843 10.4474 11.8244 10.504C11.9645 10.5606 12.0917 10.6448 12.1986 10.7516C12.3054 10.8585 12.3896 10.9857 12.4462 11.1258C12.5028 11.2659 12.5306 11.4159 12.5279 11.567C12.5252 11.718 12.4922 11.867 12.4307 12.005C12.3692 12.143 12.2805 12.2672 12.17 12.3702ZM12.17 19.0302C12.3807 19.2411 12.499 19.5271 12.499 19.8252C12.499 20.1233 12.3807 20.4093 12.17 20.6202L9.17 23.6202C8.95906 23.8309 8.67313 23.9492 8.375 23.9492C8.07687 23.9492 7.79094 23.8309 7.58 23.6202L6.08 22.1202C5.96947 22.0172 5.88082 21.893 5.81933 21.755C5.75784 21.617 5.72478 21.468 5.72211 21.317C5.71945 21.1659 5.74723 21.0159 5.80382 20.8758C5.8604 20.7357 5.94461 20.6085 6.05144 20.5016C6.15827 20.3948 6.28552 20.3106 6.4256 20.254C6.56569 20.1974 6.71573 20.1696 6.86678 20.1723C7.01784 20.175 7.16681 20.208 7.30481 20.2695C7.44281 20.331 7.56701 20.4197 7.67 20.5302L8.375 21.2352L10.58 19.0302C10.7909 18.8195 11.0769 18.7012 11.375 18.7012C11.6731 18.7012 11.9591 18.8195 12.17 19.0302Z" fill="currentColor"/>
</g>
<defs>
<clipPath id="clip0_862_136">
<rect width="30" height="30" fill="white"/>
</clipPath>
</defs>
</svg>
