<svg width="30" height="30" viewBox="0 0 30 30" fill="currentColor" xmlns="http://www.w3.org/2000/svg">
<path d="M17.7631 1.97363H4.73683C3.4342 1.97363 2.36841 3.03942 2.36841 4.34205V19.7368C2.36841 20.3881 2.9013 20.921 3.55262 20.921C4.20393 20.921 4.73683 20.3881 4.73683 19.7368V5.52627C4.73683 4.87495 5.26972 4.34205 5.92104 4.34205H17.7631C18.4145 4.34205 18.9474 3.80916 18.9474 3.15784C18.9474 2.50653 18.4145 1.97363 17.7631 1.97363ZM18.4618 7.40916L24.1816 13.1289C24.6197 13.5671 24.8684 14.171 24.8684 14.7986V25.6578C24.8684 26.9605 23.8026 28.0263 22.5 28.0263H9.46183C8.1592 28.0263 7.10525 26.9605 7.10525 25.6578L7.11709 9.0789C7.11709 7.77627 8.17104 6.71048 9.47367 6.71048H16.7803C17.4079 6.71048 18.0118 6.95916 18.4618 7.40916ZM17.7631 15H23.0921L16.5789 8.48679V13.8157C16.5789 14.4671 17.1118 15 17.7631 15Z" fill="currentColor"/>
</svg>
