<svg width="30" height="30" viewBox="0 0 30 30" fill="none" xmlns="http://www.w3.org/2000/svg">
<path d="M24 0H4.49999C2.691 0 0 1.1985 0 4.5V25.5C0 28.8015 2.691 30 4.49999 30H27V27H4.51799C3.82499 26.982 2.99999 26.7075 2.99999 25.5C2.99999 25.3485 3.01349 25.2135 3.03599 25.0905C3.20399 24.228 3.91049 24.015 4.51649 24H25.5C25.527 24 25.5465 23.9865 25.5735 23.985H27V3C27 1.3455 25.6545 0 24 0ZM24 21H2.99999V4.5C2.99999 3.291 3.82499 3.018 4.49999 3H15V13.5L18 12L21 13.5V3H24V21Z" fill="#383A3E"/>
</svg>
