<svg width="30" height="30" viewBox="0 0 30 30" fill="none" xmlns="http://www.w3.org/2000/svg">
<path fill-rule="evenodd" clip-rule="evenodd" d="M6.25 13.75C5.55964 13.75 5 14.3096 5 15C5 15.6904 5.55964 16.25 6.25 16.25C6.94036 16.25 7.5 15.6904 7.5 15C7.5 14.3096 6.94036 13.75 6.25 13.75ZM2.5 15C2.5 12.9289 4.17893 11.25 6.25 11.25C8.32107 11.25 10 12.9289 10 15C10 17.0711 8.32107 18.75 6.25 18.75C4.17893 18.75 2.5 17.0711 2.5 15Z" fill="#383A3E"/>
<path fill-rule="evenodd" clip-rule="evenodd" d="M23.75 5C23.0596 5 22.5 5.55964 22.5 6.25C22.5 6.94036 23.0596 7.5 23.75 7.5C24.4404 7.5 25 6.94036 25 6.25C25 5.55964 24.4404 5 23.75 5ZM20 6.25C20 4.17893 21.6789 2.5 23.75 2.5C25.8211 2.5 27.5 4.17893 27.5 6.25C27.5 8.32107 25.8211 10 23.75 10C21.6789 10 20 8.32107 20 6.25Z" fill="#383A3E"/>
<path fill-rule="evenodd" clip-rule="evenodd" d="M23.75 13.75C23.0596 13.75 22.5 14.3096 22.5 15C22.5 15.6904 23.0596 16.25 23.75 16.25C24.4404 16.25 25 15.6904 25 15C25 14.3096 24.4404 13.75 23.75 13.75ZM20 15C20 12.9289 21.6789 11.25 23.75 11.25C25.8211 11.25 27.5 12.9289 27.5 15C27.5 17.0711 25.8211 18.75 23.75 18.75C21.6789 18.75 20 17.0711 20 15Z" fill="#383A3E"/>
<path fill-rule="evenodd" clip-rule="evenodd" d="M23.75 22.5C23.0596 22.5 22.5 23.0596 22.5 23.75C22.5 24.4404 23.0596 25 23.75 25C24.4404 25 25 24.4404 25 23.75C25 23.0596 24.4404 22.5 23.75 22.5ZM20 23.75C20 21.6789 21.6789 20 23.75 20C25.8211 20 27.5 21.6789 27.5 23.75C27.5 25.8211 25.8211 27.5 23.75 27.5C21.6789 27.5 20 25.8211 20 23.75Z" fill="#383A3E"/>
<path fill-rule="evenodd" clip-rule="evenodd" d="M12.5 6.25C12.5 5.55964 13.0596 5 13.75 5H21.25C21.9404 5 22.5 5.55964 22.5 6.25C22.5 6.94036 21.9404 7.5 21.25 7.5H15V13.75H21.25C21.9404 13.75 22.5 14.3096 22.5 15C22.5 15.6904 21.9404 16.25 21.25 16.25H15V22.5H21.25C21.9404 22.5 22.5 23.0596 22.5 23.75C22.5 24.4404 21.9404 25 21.25 25H13.75C13.0596 25 12.5 24.4404 12.5 23.75V16.25H8.75C8.05964 16.25 7.5 15.6904 7.5 15C7.5 14.3096 8.05964 13.75 8.75 13.75H12.5V6.25Z" fill="#383A3E"/>
</svg>
