<svg width="800" height="800" viewBox="0 0 800 800" fill="none" xmlns="http://www.w3.org/2000/svg">
	<g clip-path="url(#clip0_2011_570)">
		<path d="M370.106 112C403.076 112 431.868 119.197 456.479 133.593C481.556 147.99 500.131 166.1 512.204 187.925V118.269H576.288V508.343C576.288 543.171 568.857 574.051 553.998 600.986C539.139 628.383 517.777 649.745 489.914 665.069C462.517 680.394 430.474 688.056 393.789 688.056C343.636 688.056 301.843 676.214 268.408 652.531C234.973 628.848 215.237 596.575 209.2 555.709H271.891C278.856 578.927 293.252 597.503 315.077 611.434C336.903 625.831 363.14 633.027 393.789 633.027C428.617 633.027 456.945 622.114 478.769 600.289C501.059 578.464 512.204 547.816 512.204 508.343V428.239C499.666 450.529 481.09 469.104 456.479 483.963C431.868 498.822 403.076 506.253 370.106 506.253C336.206 506.253 305.326 497.895 277.463 481.177C250.065 464.46 228.472 441.008 212.683 410.825C196.894 380.641 189 346.276 189 307.734C189 268.726 196.894 234.595 212.683 205.339C228.472 175.618 250.065 152.632 277.463 136.38C305.326 120.127 336.206 112 370.106 112ZM512.204 308.43C512.204 279.64 506.4 254.564 494.79 233.202C483.18 211.839 467.393 195.587 447.424 184.442C427.92 172.832 406.327 167.028 382.644 167.028C358.961 167.028 337.367 172.601 317.864 183.746C298.36 194.891 282.804 211.143 271.194 232.505C259.585 253.867 253.78 278.943 253.78 307.734C253.78 336.989 259.585 362.531 271.194 384.355C282.804 405.717 298.36 422.201 317.864 433.811C337.367 444.956 358.961 450.529 382.644 450.529C406.327 450.529 427.92 444.956 447.424 433.811C467.393 422.201 483.18 405.717 494.79 384.355C506.4 362.531 512.204 337.22 512.204 308.43Z" fill="#76C89D" />
		<path d="M255.277 594.717C220.812 544.564 245.842 544.564 245.842 544.564H1789" stroke="#76C89D" stroke-width="55" />
		<path d="M432.1 324.451C458.259 324.451 479.466 299.502 479.466 268.726C479.466 237.95 458.259 213.001 432.1 213.001C405.94 213.001 384.734 237.95 384.734 268.726C384.734 299.502 405.94 324.451 432.1 324.451Z" fill="#484B4C" />
	</g>
	<defs>
		<clipPath id="clip0_2011_570">
			<rect width="800" height="800" rx="100" fill="white" />
		</clipPath>
	</defs>
</svg>
