<svg width="79" height="79" viewBox="0 0 79 79" fill="none" xmlns="http://www.w3.org/2000/svg">
<path d="M61.225 21.7908C71.0342 21.7908 79 29.625 79 39.5C79 49.2433 71.0342 57.1763 61.225 57.1763C56.4521 57.1763 52.0083 55.3329 48.6508 52.0083L39.5 43.9108L30.1846 52.1729C26.9917 55.3658 22.515 57.2092 17.775 57.2092C7.96583 57.2092 0 49.2433 0 39.5C0 29.7567 7.96583 21.7908 17.775 21.7908C22.515 21.7908 26.9917 23.6342 30.3492 26.9917L39.5 35.0892L48.8154 26.8271C52.0083 23.6342 56.485 21.7908 61.225 21.7908ZM25.675 47.3671L34.5625 39.5L25.8067 31.7646C23.5683 29.5262 20.7704 28.3742 17.775 28.3742C11.6196 28.3742 6.58333 33.3446 6.58333 39.5C6.58333 45.6554 11.6196 50.6258 17.775 50.6258C20.7704 50.6258 23.5683 49.4738 25.675 47.3671ZM53.325 31.6329L44.4375 39.5L53.1933 47.2354C55.4317 49.4738 58.2625 50.6258 61.225 50.6258C67.3804 50.6258 72.4167 45.6554 72.4167 39.5C72.4167 33.3446 67.3804 28.3742 61.225 28.3742C58.2296 28.3742 55.4317 29.5262 53.325 31.6329Z" fill="url(#paint0_linear_4510_675)"/>
<defs>
<linearGradient id="paint0_linear_4510_675" x1="5.21354e-07" y1="39.4981" x2="79" y2="39.4981" gradientUnits="userSpaceOnUse">
<stop stop-color="#76C89D"/>
<stop offset="1" stop-color="#8A8ACD"/>
</linearGradient>
</defs>
</svg>
