<svg width="79" height="67" viewBox="0 0 79 67" fill="none" xmlns="http://www.w3.org/2000/svg">
<path d="M61.225 15.791C71.0342 15.791 79 23.6252 79 33.5002C79 43.2435 71.0342 51.1764 61.225 51.1764C56.4521 51.1764 52.0083 49.3331 48.6508 46.0085L39.5 37.911L30.1846 46.1731C26.9917 49.366 22.515 51.2093 17.775 51.2093C7.96583 51.2093 0 43.2435 0 33.5002C0 23.7568 7.96583 15.791 17.775 15.791C22.515 15.791 26.9917 17.6343 30.3492 20.9918L39.5 29.0893L48.8154 20.8273C52.0083 17.6343 56.485 15.791 61.225 15.791ZM25.675 41.3673L34.5625 33.5002L25.8067 25.7648C23.5683 23.5264 20.7704 22.3743 17.775 22.3743C11.6196 22.3743 6.58333 27.3448 6.58333 33.5002C6.58333 39.6556 11.6196 44.626 17.775 44.626C20.7704 44.626 23.5683 43.4739 25.675 41.3673ZM53.325 25.6331L44.4375 33.5002L53.1933 41.2356C55.4317 43.4739 58.2625 44.626 61.225 44.626C67.3804 44.626 72.4167 39.6556 72.4167 33.5002C72.4167 27.3448 67.3804 22.3743 61.225 22.3743C58.2296 22.3743 55.4317 23.5264 53.325 25.6331Z" fill="url(#paint0_linear_878_132)"/>
<defs>
<linearGradient id="paint0_linear_878_132" x1="5.21354e-07" y1="33.4983" x2="79" y2="33.4983" gradientUnits="userSpaceOnUse">
<stop stop-color="#76C89D"/>
<stop offset="1" stop-color="#8A8ACD"/>
</linearGradient>
</defs>
</svg>
